<svg viewBox="0 0 400.02 400.02" xmlns="http://www.w3.org/2000/svg">
  <path d="m400.01 137.26h-98.71l78.69-78.69-37.38-37.38-79.85 79.85v-101.04h-52.87v75.42c0 30.42 12.08 59.6 33.6 81.11 21.51 21.51 50.69 33.6 81.11 33.6h75.42v-52.87z"/>
  <path d="m190.13 0.01h-52.87v98.71l-78.69-78.69-37.38 37.38 79.85 79.85h-101.04v52.87h75.42c30.42 0 59.6-12.08 81.11-33.6 21.51-21.51 33.6-50.69 33.6-81.11v-75.42z"/>
  <path d="m0.01 209.89v52.87h98.71l-78.69 78.69 37.38 37.38 79.85-79.85v101.04h52.87v-75.42c0-30.42-12.08-59.6-33.6-81.11-21.51-21.51-50.69-33.6-81.11-33.6h-75.42z"/>
  <path d="m209.89 400.01h52.87v-98.71l78.69 78.69 37.38-37.38-79.85-79.86h101.04v-52.87h-75.42c-30.42 0-59.6 12.08-81.11 33.6-21.51 21.51-33.6 50.69-33.6 81.11z"/>
</svg>
