<?xml version="1.0" encoding="UTF-8"?>
<svg width="1e3" height="292.9" data-name="Calque 1" version="1.1" viewBox="0 0 1e3 292.9" xmlns="http://www.w3.org/2000/svg">
 <defs>
  <style>.cls-1 {
        fill: #619af1;
      }</style>
 </defs>
 <path class="cls-1" d="m837.64 95.02h162.35v-47.52h-165.84c-22.34 0-41.06 15.5-46.01 36.33v-36.33h-49.89v131.91l-71.39-0.1-31.53-98.87c-6.25-19.61-24.48-32.93-45.06-32.93h-106.61v-47.51h-49.89v47.51h-57.25v47.3c0-26.12-21.18-47.3-47.3-47.3h-118.59c-26.12 0-47.3 21.18-47.3 47.3v-47.3h-125.76c-20.75 0-37.57 16.82-37.57 37.57v141.85h49.89v-131.91h113.44v84.61c0 26.12 21.18 47.3 47.3 47.3h165.89v-47.51h-157.31c-3.31 0-5.99-2.68-5.99-5.99v-6.46c0-3.31 2.68-5.99 5.99-5.99h157.31v-65.95h57.25v84.61c0 26.12 21.18 47.3 47.3 47.3h108.64v-47.51h-106.05v-84.39h96.64c5.84 0 11.01 3.78 12.79 9.34l28.61 89.64c6.26 19.61 24.48 32.92 45.06 32.92h61.89c5.05 0 9.45 3.89 9.6 8.94 0.16 5.22-4.03 9.5-9.21 9.5h-139.32v47.52h151.13c26.12 0 47.3-21.18 47.3-47.3v-54.77c5.03 20.72 23.69 36.11 45.96 36.11h165.89v-47.51h-163.3v-84.39h0.95zm-508.64 12.45c0 3.31-2.68 5.99-5.99 5.99h-106.19c-3.31 0-5.99-2.68-5.99-5.99v-6.46c0-3.31 2.68-5.99 5.99-5.99h106.19c3.31 0 5.99 2.68 5.99 5.99z"/>
</svg>
